<?xml version="1.0" encoding="UTF-8"?><svg id="uuid-e8349e46-7e2a-468e-908a-b442191d9d88" xmlns="http://www.w3.org/2000/svg" viewBox="0 0 1759.58 979.65"><g id="uuid-91245e3a-7054-4422-8ed2-18ea88b7aff3"><path d="m131.21,127.95c-9.93,3.22-19.37,6.7-28.82,11.42-23.01,12.39-45.24,25.57-62.53,44.38,2.47-1.09,4.76-1.99,7.53-3.38,4.79-2.23,9.64-4.22,14.55-6-2.28-2.73,1.97-8.39,5.45-11,19.59-14.44,41.05-26.75,63.82-35.42M645.59,0c-10.62,0-21.34.74-32.2,2.37h-8c-9,2-17,3-26,5-1,0-3,2-4,2-30,6-55,19-82,34-28,15-54,31-83,44-2,1-3,0-5,1-37,15-74,25-114,30-9.66,1.51-19.31,2.02-28.97,2.02-2.88,0-5.76-.05-8.64-.12,18.87,3.91,37.72,9.03,57.61,13.11,11,2,21,2,31,3,5.94.13,11.88.19,17.83.19,40.06,0,80.12-2.84,120.17-7.19,41-4,80-15,121-18,8.28-.41,16.4-.66,24.48-.66,11.43,0,22.8.49,34.52,1.66,49,7,94,20,138,45l3,3c13,6,23,15,35,24,25,21,42,45,63,69,.1.1.19.19.29.29,15.88,7.18,32.68,12.79,50.71,16.71,1,0,3,2,4,2,12,3,24,4,37,7,10,1,19,2,28,3,2.33.33,4.78.44,7.26.44,4.96,0,10.07-.44,14.74-.44,1.86.04,3.73.06,5.59.06,46.13,0,92.12-11.8,134.41-30.06,3-1,5-1,8-2,20-9,40-14,61-19,39-10,74-18,113-24,12.05-1.9,24.09-2.6,36.14-2.6,6.95,0,13.91.23,20.86.6,24,2,49,5,73,5,35-1,67-12,98-30,6-4,11-7,17-11,13-10,25-19,35-31,4-3,4-6,4-10,0-3.06-1.75-4.36-3.47-4.36-.53,0-1.06.12-1.53.36-14.37,1.64-28.9,2.95-43.32,2.95-20.72,0-41.22-2.69-60.68-10.95-20-9-39-20-59-29-20-9-41-14-63-16-9.48-.92-18.9-1.37-28.29-1.37-31.25,0-62.18,4.91-93.71,13.37-54,15-98,43-140,79-1,1-2,3-3,4-3,2-5,4-8,6-30,30-64,57-107,63-7.72,1.02-15.4,1.54-23.01,1.54-29.86,0-58.69-8.01-84.99-25.54-2-2-5-4-7-5-13-11-24-23-33-38-10-18-19-35-29-53-8-13-16-24-26-36-10-11-20-20-32-30-22-16-45-28-71-36-28.41-8.01-56.29-13.37-84.8-13.37" fill="#c2dbe8" stroke-width="0"/><path d="m666.23,136.25c-2.95,0-5.89.04-8.84.12-29,2-56,11-81,29-2,1-3,1-5,2-11,7-21,14-33,21-2.6,1.73-4.44,3.46-6.84,5.19,6.2-1.15,12.41-2.27,18.84-3.19,11.28-1.64,22.53-2.61,33.72-2.98,13.35-7.59,25.9-14.22,40.28-19.02,14.33-4.48,29.46-8.16,44.68-8.15,1.77,0,3.55.05,5.32.15,12,1,23,2,35,5,15,5,28,9,42,17,22.12,12.44,39.46,30.62,51.7,52.22,46.48,29.96,84.03,73.17,105.3,125.78,1.95,5.2,3.9,10.83,5.85,16.33,5.32,4.06,10.91,7.7,17.15,11.67,30,17,61,28,94,31,3.95.34,7.86.51,11.75.51,18.77,0,36.85-3.88,54.25-10.51,52-22,101-47,158-57h5c19.65-3.8,38.5-5.2,57.31-5.2,10.86,0,21.71.46,32.69,1.2,4,1,8,1,12,2,23,2,44,6,67,12,1,0,2,2,3,2,29.21,7.91,53.6,22.85,76.78,40.33,7.07-.16,14.15-.62,21.22-1.33,17-2,33-8,50-13,7-3,14-6,21-9,15-7,30-15,42-27,2-2,3-4,3-6,0-4-3-5-5-5-4.8,0-9.64.04-14.5.04-19.42,0-39.1-.64-57.5-7.04-3-2-7-3-10-4-21-11-38-25-57-40-48.27-35.49-103.57-46.79-159.86-46.79-23.02,0-46.21,1.89-69.14,4.79-15,2-29,5-44,9-9,3-17,5-26,8-34,12-66,27-99,40-15.25,5.38-31.29,9.15-47.43,9.15-1.86,0-3.71-.05-5.57-.15-10,0-20,0-31-2-14-3-27-7-40-11-15-6-30-12-44-22-11.88-8.91-20.83-17.83-30.71-27.71-24.62-11.14-47.01-26.05-68.29-44.29-21-19-41-38-66-51-31.29-16.57-65.13-22.12-99.16-22.12m-463.24-21.94c-1.53,0-3.06.02-4.6.06-23.25.48-45.79,5.43-67.18,13.58,2.69-.87,5.41-1.72,8.18-2.58,13-3,25-6,38-7,2-.33,4-.44,6-.44,4,0,8,.44,12,.44,2.54-.08,5.09-.11,7.63-.11,9.9,0,19.8.53,29.7,1.07,7.02.38,14.04.76,21.06.94-16.67-3.45-33.36-5.95-50.79-5.95" fill="#e9cddd" stroke-width="0"/><path d="m625.87,110.72c-8.08,0-16.2.24-24.48.66-41,3-80,14-121,18-40.06,4.35-80.12,7.19-120.17,7.19-5.94,0-11.88-.06-17.83-.19-10-1-20-1-31-3-19.89-4.08-38.74-9.2-57.61-13.11-7.02-.19-14.04-.57-21.06-.94-9.9-.53-19.8-1.07-29.7-1.07-2.54,0-5.09.04-7.63.11-4,0-8-.44-12-.44-2,0-4,.11-6,.44-13,1-25,4-38,7-2.77.85-5.49,1.7-8.18,2.58-22.77,8.68-44.22,20.99-63.82,35.42-3.49,2.61-7.73,8.27-5.45,11,23.73-8.63,48.59-12.34,73.45-14,3.23-.17,6.47-.25,9.68-.25,34.6,0,68.29,9.62,100.32,24.25,2,1,3,0,5,1,16,7,32,16,49,21,2.15.72,3.79,1.95,5.65,2.96,11.88,1.15,23.61,1.57,35.29,1.57,8.37,0,16.72-.21,25.06-.52,27-1,54-1,81-3,17-2,34-4,51-7,4-1,8-2,12-3,7.57-1.08,14.86-2.46,22.16-3.81,2.39-1.73,4.24-3.46,6.84-5.19,12-7,22-14,33-21,2-1,3-1,5-2,25-18,52-27,81-29,2.95-.08,5.89-.12,8.84-.12,34.04,0,67.87,5.55,99.16,22.12,25,13,45,32,66,51,21.28,18.24,43.67,33.15,68.29,44.29-.1-.1-.19-.19-.29-.29-21-24-38-48-63-69-12-9-22-18-35-24l-3-3c-44-25-89-38-138-45-11.72-1.17-23.09-1.66-34.52-1.66" fill="#bbb3cc" stroke-width="0"/><path d="m594.4,187.22c-3.42,0-6.85.06-10.29.17-.57.33-1.14.65-1.72.98-8.9,5.56-17.78,10.98-26.67,16.18,3.53-1.04,7.09-2.1,10.67-3.18,22.13-5.77,44.26-9.69,67.28-11.76-12.99-1.56-26.1-2.38-39.28-2.38" fill="#fff5c2" stroke-width="0"/><path d="m584.11,187.39c-11.19.37-22.44,1.34-33.72,2.98-6.43.92-12.64,2.05-18.84,3.19-.37.27-.76.54-1.16.81-6,3-11,6-17,10-2,1-3,1-5,2-3,1-5,3-7,5-7.95,4.33-15.89,8.38-23.89,12.12.3-.04.6-.08.89-.12,26.42-4.4,51.28-11.13,77.33-18.82,8.89-5.2,17.77-10.62,26.67-16.18.58-.33,1.15-.66,1.72-.98" fill="#eed0a9" stroke-width="0"/><path d="m531.55,193.57c-7.31,1.35-14.59,2.73-22.16,3.81-4,1-8,2-12,3-17,3-34,5-51,7-27,2-54,2-81,3-8.34.31-16.69.52-25.06.52-11.68,0-23.42-.42-35.29-1.57.73.4,1.5.76,2.35,1.04,13,4,25,8,39,10,26.73,4.16,52.41,6.55,78.29,6.55,17.39,0,34.87-1.08,52.82-3.43,8-3.74,15.95-7.78,23.89-12.12,2-2,4-4,7-5,2-1,3-1,5-2,6-4,11-7,17-10,.4-.27.79-.54,1.16-.81" fill="#ccbb9b" stroke-width="0"/><path d="m1363.45,387.3c-1.68,0-3.37.02-5.06.07-39,2-77,7-116,18-48,13-89,34-139,42-14.62,2.25-28.83,3.38-42.87,3.38-23.41,0-46.38-3.12-70.13-9.37-21-6-40-14-60-23-1-1-2-2-3-3-1.13-.56-2.24-1.14-3.34-1.72.11.57.23,1.15.34,1.72,8,36,9,70,20,104,3.94,11.82,9.03,22.88,15.36,33.17,9.64,3.6,19.53,6.83,29.64,9.83,22.67,6.14,45.56,9.16,68.46,9.16,25.59,0,51.21-3.77,76.54-11.16,27-8,53-18,79-29,10-3,19-6,29-9,37.78-8.93,75.07-15.5,112.88-15.5,17.24,0,34.58,1.37,52.12,4.5,34,5,66,17,100,20,5.28.38,10.55.57,15.81.57,49.64,0,98.5-16.93,139.19-48.57,3-3,4-10,0-11-18-4-34-1-52-5-10-2-20-5-29-8-12-5-23-11-34-19-14.88-12.14-29.3-24.43-44.22-35.67-1.92.04-3.84.07-5.75.07-11.01,0-22.02-.74-33.03-2.39-34.31-5.72-66.8-15.07-100.94-15.07M14.46,228.67c-2.44,2.15-3.25,5.26-4.06,7.7,0,3,3,6,5,6,18.18.98,36.13,2.69,53.59,6.55-.86-.51-1.72-1.02-2.59-1.55-5-3-10-4-15-7-12.03-6.02-24.63-8.07-36.94-11.7" fill="#fff5c2" stroke-width="0"/><path d="m1311.71,347.18c-18.81,0-37.66,1.39-57.31,5.2h-5c-57,10-106,35-158,57-17.4,6.63-35.48,10.51-54.25,10.51-3.89,0-7.8-.17-11.75-.51-33-3-64-14-94-31-6.24-3.97-11.83-7.62-17.15-11.67,1.05,2.96,2.1,5.87,3.15,8.67,2.83,9.43,4.77,18.85,6.66,28.28,1.1.58,2.22,1.16,3.34,1.72,1,1,2,2,3,3,20,9,39,17,60,23,23.75,6.25,46.72,9.37,70.13,9.37,14.04,0,28.25-1.12,42.87-3.38,50-8,91-29,139-42,39-11,77-16,116-18,1.69-.05,3.38-.07,5.06-.07,34.14,0,66.63,9.35,100.94,15.07,11.01,1.65,22.02,2.39,33.03,2.39,1.92,0,3.84-.02,5.75-.07-23.18-17.47-47.58-32.42-76.78-40.33-1,0-2-2-3-2-23-6-44-10-67-12-4-1-8-1-12-2-10.98-.73-21.83-1.2-32.69-1.2" fill="#eed0a9" stroke-width="0"/><path d="m39.87,183.75c-1.1.49-2.24,1.01-3.47,1.62-5,3-10,4-14,8-2.19,2.92-3.84,7.43-2.64,10.83,3.59-1.38,7.2-2.68,10.84-3.88-1.54-2.84,1.02-6.29,2.8-8.95,2.07-2.64,4.23-5.18,6.47-7.62" fill="#fedec4" stroke-width="0"/><path d="m61.94,174.38c-4.9,1.78-9.75,3.77-14.55,6-2.77,1.38-5.05,2.29-7.53,3.38-2.24,2.44-4.41,4.98-6.47,7.62-1.77,2.66-4.33,6.11-2.8,8.95,19.39-6.41,39.44-10.25,59.78-11.62,10.34-3.19,20.91-5.61,31.66-7.2-.22-.04-.43-.08-.65-.13-10-2-18-2-28-4-1.2-.12-2.42-.17-3.64-.17-2.42,0-4.87.19-7.32.37-2.45.19-4.89.37-7.29.37-4.11,0-8.1-.55-11.75-2.58-.64-.26-1.12-.6-1.45-1" fill="#d0c3b3" stroke-width="0"/><path d="m145.08,160.12c-3.22,0-6.45.08-9.68.25-24.86,1.66-49.73,5.38-73.45,14,.34.4.81.74,1.45,1,3.65,2.03,7.64,2.58,11.75,2.58,2.4,0,4.84-.19,7.29-.37,2.45-.19,4.9-.37,7.32-.37,1.23,0,2.44.05,3.64.17,10,2,18,2,28,4,.22.04.43.08.65.13,9.9-1.47,19.95-2.23,30.09-2.23,11.66,0,23.44,1.01,35.26,3.1,33,6,63,18,96,24,7.28,1.3,14.49,2.26,21.65,2.96-1.86-1.01-3.5-2.24-5.65-2.96-17-5-33-14-49-21-2-1-3,0-5-1-32.02-14.64-65.71-24.25-100.32-24.25" fill="#cba49e" stroke-width="0"/><path d="m649.37,188.96c-4.27,0-8.58.12-12.97.41-.91.08-1.81.15-2.72.24,33.11,3.97,65.51,12.72,96.72,24.76,15,6,29,12,43,21,11,7,21,14,32,22,3.96,3.35,7.82,6.69,11.59,10.07-.2-.69-.39-1.38-.59-2.07-3.4-10.81-7.84-21.13-13.3-30.78-36.57-23.57-78.67-38.94-122.7-44.22-10.61-.71-20.71-1.41-31.03-1.41" fill="#fedec4" stroke-width="0"/><path d="m803.09,234.59c5.46,9.65,9.91,19.97,13.3,30.78.19.69.39,1.38.59,2.07,8.62,7.72,16.76,15.58,24.41,23.93,16,18,28,36,43,55,6,7,12,13,18,20,3.9,3.9,7.79,7.23,11.85,10.33-1.95-5.5-3.9-11.13-5.85-16.33-21.27-52.61-58.82-95.82-105.3-125.78" fill="#edb9ab" stroke-width="0"/><path d="m869.95,497.21c1.92,13.6,3.04,27.36,3.44,41.16,0,1.23,0,2.41.02,3.55,4.21,6.89,8.79,13.7,13.98,20.45,6,8,10,16,18,23,1,1,1,3,2,4,12,12,22,23,35,34,1,1,3,1,4,2,5,4,10,9,16,12,1,1,2,2,3,3,5,3,8,6,13,9,38.37,22.46,76.75,40.55,120.86,49.33,32.32-13.42,63-28.75,98.14-38.33,24-6.4,48-9.6,72.51-9.6,6.13,0,12.29.2,18.49.6,43,3,85,14,124,35,1,1,3,0,4,1,4,3,8,5,13,7,21.81,12.27,39.91,27.85,56.54,45.13,4.49,2.12,8.98,4.4,13.46,6.87,18,9,36,18,55,25,16,5,31,10,48,13,10.28,1.38,20.6,2.06,30.89,2.06,41.75,0,83.01-11.21,119.11-32.06,5-4,11-12,4-15-23-9-48-13-70-24-1-1-3,0-4-1-27-14-49-33-69-57-2-2-4-3-6-5-16-19-33-35-52-51-10-8-20-15-31-21-5-2-9-4-13-7-1-1-3,0-4-1-22-12-44-20-69-26-11-2-22-4-33-6-12-2-23-2-34-3-1.82-.04-3.64-.06-5.45-.06-45.1,0-89.21,11.87-130.55,32.06-23,11-43,24-66,35-1,1-2,2-3,3-18,7-34,15-53,19-7.61,1.37-15.04,2.01-22.3,2.01-29.94,0-57.14-10.91-83.7-27.01-2-2-4-4-7-5-4-3-6-6-10-8-12.37-10.68-22.52-22.63-30.64-35.83-25.64-9.57-49.56-21.73-71.36-39.17-4-4-8-7-13-11-1.85-1.7-3.66-3.42-5.44-5.16m-222.89-253.17c-15.17,0-30.23,2.78-44.67,8.33-2.36.93-4.69,1.9-6.99,2.9.94,0,1.87-.01,2.81-.01,25.35,0,50.26,3.56,75.18,11.11,43,13,80,35,113,65,.93.93,1.84,1.84,2.73,2.73-9.7-21.81-22.36-40.91-42.73-55.73-2-1-5-3-7-5-1-1-3-1-4-2-1-1-2-2-3-3-11-6-21-10-32-15-6-2-11-3-17-4-12-3.56-24.2-5.33-36.33-5.33" fill="#fedec4" stroke-width="0"/><path d="m633.68,189.61c-23.02,2.07-45.15,5.99-67.28,11.76-3.58,1.08-7.14,2.14-10.67,3.18-47.07,27.54-94.66,49.25-149.33,56.82-21,3-42,4-63,4-4.38-.26-8.77-.58-13.17-.96,1.7.33,3.43.65,5.17.96,32.54,5.79,63.52,10,95.19,10,12.13,0,24.35-.62,36.81-2,36-5,70-13,106-17,7.38-.65,14.72-1.02,22.01-1.1,2.3-1,4.63-1.97,6.99-2.9,14.45-5.56,29.51-8.33,44.67-8.33,12.13,0,24.33,1.78,36.33,5.33,6,1,11,2,17,4,11,5,21,9,32,15,1,1,2,2,3,3,1,1,3,1,4,2,2,2,5,4,7,5,20.38,14.82,33.03,33.93,42.73,55.73,4.85,4.85,9.2,9.2,14.27,14.27,38.4,42.4,58.88,94.41,66.56,148.84,1.78,1.74,3.59,3.46,5.44,5.16,5,4,9,7,13,11,21.8,17.44,45.72,29.6,71.36,39.17-6.33-10.29-11.42-21.34-15.36-33.17-11-34-12-68-20-104-.11-.57-.23-1.15-.34-1.72-20.49-10.82-37.53-25.2-53.66-42.28-27.5-29.47-42.47-65.69-53.41-103.93-3.77-3.38-7.63-6.72-11.59-10.07-11-8-21-15-32-22-14-9-28-15-43-21-31.21-12.04-63.6-20.79-96.72-24.76" fill="#fed797" stroke-width="0"/><path d="m122.04,181.5c-10.75,1.59-21.32,4.02-31.66,7.2,5.62-.38,11.27-.56,16.93-.56,11.32,0,22.7.75,34.09,2.23,4.85.71,9.6,1.61,14.26,2.69-10.61-5.24-21.62-9.22-33.61-11.57" fill="#dbc28a" stroke-width="0"/><path d="m816.98,267.44c10.95,38.24,25.91,74.46,53.41,103.93,16.13,17.08,33.16,31.46,53.66,42.28-1.89-9.43-3.83-18.85-6.66-28.28-1.05-2.8-2.1-5.72-3.15-8.67-4.06-3.1-7.96-6.43-11.85-10.33-6-7-12-13-18-20-15-19-27-37-43-55-7.65-8.35-15.79-16.21-24.41-23.93m-261.26-62.89c-26.05,7.69-50.91,14.42-77.33,18.82-.3.04-.6.08-.89.12-25.23,11.79-51.02,20.57-79.11,25.88-11,3-21,6-32,6-3,0-5,2-8,2-15.06,1.73-30.12,2.91-45.08,3.21,5.47,1.44,11.08,2.71,16.91,3.84,4.4.37,8.79.7,13.17.96,21,0,42-1,63-4,54.67-7.57,102.26-29.29,149.33-56.82" fill="#f2bb83" stroke-width="0"/><path d="m152.13,179.27c-10.14,0-20.19.76-30.09,2.23,11.99,2.35,23,6.33,33.61,11.57,48.21,11.19,87.15,41.07,132.74,59.31,8.2,3.28,16.39,5.96,24.92,8.21,14.97-.3,30.03-1.48,45.08-3.21,3,0,5-2,8-2,11,0,21-3,32-6,28.09-5.31,53.88-14.09,79.11-25.88-17.96,2.35-35.43,3.43-52.82,3.43-25.87,0-51.55-2.39-78.29-6.55-14-2-26-6-39-10-.85-.28-1.62-.65-2.35-1.04-7.16-.69-14.37-1.66-21.65-2.96-33-6-63-18-96-24-11.82-2.1-23.6-3.1-35.26-3.1" fill="#d7ab78" stroke-width="0"/><path d="m673.89,374.11c-6.64,0-13.27,1.08-19.91,2.36,4.79.85,9.59,1.82,14.42,2.91,7,2,13,3,19,5,52,18,97,47,133,90,1,1,1,3,2,4,10,10,16,22,23,34,1,1,0,3,1,4,14,23,20,48,25,74,6,41,3,82,20,121,1.21,2.9,2.51,5.75,3.9,8.54,4.71,3.65,9.68,7.15,15.1,10.46,1,1,2,2,3,3,6,4,12,7,17,10,27,18,52,30,82,39,7,1,12,3,19,5,14.36,3.59,28.2,5.63,42.27,7.24,2.25-.71,4.5-1.46,6.73-2.24,36-12,70-28,107-39,25.72-7.23,51.45-10.59,77.69-10.59,6.4,0,12.84.2,19.31.59,48,4,95,17,138,40,10,6,19,11,28,18,6,5,11,9,17,14,8,8,16,16,24,24,16,19,30,37,47,55,6.89,6.38,14.17,11.91,21.77,16.76,32.2-1.46,64.11-9.32,93.23-22.76,4-2,5-5,7-8,1-4-2-8-5-9-32-8-60-21-88-41-10-7-17-16-24-24-19.64-22.91-37.49-46.12-57.46-66.87-24.6-11.58-49.64-18.21-77.54-24.13-3-1-7-1-10-1-26-5-51-7-77-11-17.56-2.42-34.76-3.74-51.81-3.74-11.11,0-22.15.56-33.19,1.74-22.67,1.58-45.06,2.89-67.47,2.89-20.1,0-40.2-1.05-60.53-3.89-3.07-.51-6.12-1.07-9.14-1.67-8.15,3.39-16.41,6.65-24.87,9.67-15.56,5.44-31.41,8.17-47.16,8.17-24.75,0-49.23-6.72-71.84-20.17l-3-3c-3-2-6-2-8-4-2-2-5-4-7-5-21-17-38-36-48-60-9-23-15-47-15-72-.75-3.77-.94-6.97-.98-10.45-12-19.63-20.91-39.82-32.02-60.55-12-21-25-40-44-56-1-1-3-1-4-2-22-20-49-32-76-42-12-4-25-6-38-7-1.83-.18-3.67-.27-5.51-.27M68.98,248.92c8.98,5.34,17.19,10.06,25.41,16.45,7,6,13,12,19,18,8.24,9.51,15.88,19.22,23.36,28.91.26,0,.51,0,.77,0,16.14,0,32.28,1.71,48.13,5.15-8.43-5.03-15.75-11.65-24.26-17.06-11-8-20-15-30-24-2-2-5-2-7-4-1-1-2-2-3-3-16.78-10.17-34.34-16.46-52.41-20.45m-49.23-44.72c-4.16,1.6-8.28,3.33-12.36,5.17-2,1-5,3-6,5-1,3-3,8,1,10,3.97,1.74,8,3.1,12.06,4.3.55-.49,1.19-.93,1.94-1.3,7.91-6.1,16.18-11.71,24.75-16.78-6.22-1.27-12.47-2.34-18.75-3.22-1.35-.81-2.19-1.92-2.64-3.17" fill="#fcd2c7" stroke-width="0"/><path d="m41.14,210.59c-8.57,5.07-16.84,10.68-24.75,16.78-.74.37-1.38.81-1.94,1.3,12.31,3.63,24.91,5.68,36.94,11.7,5,3,10,4,15,7,.87.52,1.73,1.04,2.59,1.55,18.07,3.99,35.63,10.28,52.41,20.45,1,1,2,2,3,3,2,2,5,2,7,4,10,9,19,16,30,24,8.51,5.42,15.83,12.03,24.26,17.06,3.81.83,7.59,1.75,11.36,2.78-14.44-14.61-28.03-30.27-41.62-46.84-29.73-34.98-70.94-53.9-114.25-62.78" fill="#fcca99" stroke-width="0"/><path d="m64.6,198.43c-8.01.89-16.05,2.24-24.2,3.94-1.5,0-3,.25-4.5.25s-3-.25-4.5-1.25c-.34-.34-.6-.69-.8-1.05-3.64,1.2-7.25,2.5-10.84,3.88.45,1.26,1.29,2.36,2.64,3.17,6.27.88,12.53,1.95,18.75,3.22,7.6-4.49,15.43-8.56,23.46-12.16" fill="#fbb99b" stroke-width="0"/><path d="m90.38,188.7c-20.34,1.36-40.4,5.21-59.78,11.62.2.36.46.71.8,1.05,1.5,1,3,1.25,4.5,1.25s3-.25,4.5-.25c8.16-1.7,16.2-3.05,24.2-3.94,8.39-3.76,17-7.02,25.78-9.73" fill="#d9a48e" stroke-width="0"/><path d="m1269.9,650.77c-24.51,0-48.51,3.2-72.51,9.6-35.14,9.58-65.81,24.91-98.14,38.33,3.02.6,6.06,1.16,9.14,1.67,20.33,2.84,40.44,3.89,60.53,3.89,22.41,0,44.8-1.3,67.47-2.89,11.05-1.18,22.09-1.74,33.19-1.74,17.05,0,34.24,1.32,51.81,3.74,26,4,51,6,77,11,3,0,7,0,10,1,27.9,5.92,52.94,12.55,77.54,24.13-16.63-17.28-34.73-32.86-56.54-45.13-5-2-9-4-13-7-1-1-3,0-4-1-39-21-81-32-124-35-6.2-.4-12.36-.6-18.49-.6M598.22,255.26c-.94,0-1.87,0-2.81.01-34.76,15.18-63.25,38.34-97.01,57.09-9,4-16,9-25,13-13,5-26,11-39,15-15,5-29,8-45,11-9,1-18,2-27,3-8.7.41-17.57.66-26.47.66-12.59,0-25.23-.49-37.53-1.66-12.56-1.32-25.55-3.08-38.12-6.14,19.25,10.08,38.41,20.11,60.12,26.14,39.84,10.79,79.69,16.76,120.11,16.76,8.27,0,16.56-.25,24.89-.76,37-3,73-12,111-16,9.3-.9,18.51-1.35,27.68-1.35,16.65,0,33.17,1.48,49.9,4.44,6.64-1.28,13.27-2.36,19.91-2.36,1.83,0,3.67.08,5.51.27,13,1,26,3,38,7,27,10,54,22,76,42,1,1,3,1,4,2,19,16,32,35,44,56,11.11,20.73,20.02,40.91,32.02,60.55-.02-1.14-.02-2.31-.02-3.55-.4-13.8-1.52-27.55-3.44-41.16-22.33-21.85-39.52-47.13-51.56-75.84-11-27-17-55-27-82-.74-1.77-1.49-3.53-2.27-5.27-.89-.89-1.8-1.8-2.73-2.73-33-30-70-52-113-65-24.92-7.55-49.83-11.11-75.18-11.11" fill="#fbb99b" stroke-width="0"/><path d="m789.13,334.11c.77,1.74,1.53,3.49,2.27,5.27,10,27,16,55,27,82,12.04,28.71,29.23,53.99,51.56,75.84-7.68-54.44-28.16-106.44-66.56-148.84-5.07-5.07-9.42-9.42-14.27-14.27M85.27,197.25c-6.9,0-13.77.42-20.68,1.19-8.03,3.6-15.86,7.67-23.46,12.16,43.31,8.88,84.52,27.8,114.25,62.78,13.59,16.57,27.18,32.23,41.62,46.84,8.24,2.24,16.38,4.96,24.38,8.16,13.5,5.56,26.21,12.22,38.88,18.86,12.57,3.06,25.56,4.82,38.12,6.14,12.3,1.17,24.95,1.66,37.53,1.66,8.9,0,17.77-.24,26.47-.66,9-1,18-2,27-3,16-3,30-6,45-11,13-4,26-10,39-15,9-4,16-9,25-13,33.77-18.76,62.25-41.92,97.01-57.09-7.3.08-14.63.44-22.01,1.1-36,4-70,12-106,17-12.46,1.38-24.68,2-36.81,2-31.67,0-62.65-4.22-95.19-10-1.74-.31-3.47-.63-5.17-.96-12.66-1.08-25.47-2.56-38.83-4.04-.06-.01-.12-.02-.18-.03-37.99-1.66-75.1-10.14-109.82-30.97-1-1-3,0-4-1-21-14-41-24-66-29-8.81-1.47-17.48-2.13-26.12-2.13" fill="#fbb378" stroke-width="0"/><path d="m107.31,188.14c-5.66,0-11.3.19-16.93.56-8.78,2.71-17.39,5.96-25.78,9.73,6.9-.77,13.78-1.19,20.68-1.19,8.64,0,17.31.66,26.12,2.13,25,5,45,15,66,29,1,1,3,0,4,1,34.72,20.83,71.82,29.31,109.82,30.97-5.94-1.01-11.89-2.98-18.82-3.97-11-2-21-7-32-11-12-5-22-12-34-19-10-7-18-13-28-20-7.51-5.01-15.02-9.49-22.74-13.31-4.66-1.08-9.41-1.99-14.26-2.69-11.38-1.48-22.76-2.23-34.09-2.23" fill="#e1a46e" stroke-width="0"/><path d="m291.21,260.34c.06.01.12.02.18.03,13.36,1.48,26.16,2.97,38.83,4.04-5.83-1.13-11.44-2.39-16.91-3.84-2.48.05-4.95.08-7.43.08-4.9,0-9.8-.1-14.67-.31" fill="#f29e69" stroke-width="0"/><path d="m155.65,193.07c7.73,3.82,15.23,8.3,22.74,13.31,10,7,18,13,28,20,12,7,22,14,34,19,11,4,21,9,32,11,6.93.99,12.88,2.96,18.82,3.97,4.88.21,9.77.31,14.67.31,2.47,0,4.95-.03,7.43-.08-8.52-2.25-16.72-4.93-24.92-8.21-45.59-18.24-84.53-48.11-132.74-59.31" fill="#dd9160" stroke-width="0"/><path d="m136.76,312.29c-34.81.12-69.59,8.2-101.36,24.09-4,3-4,6-4,10,0,1,1,2,2,2,20,7,42,9,61,21,1,1,3,0,4,1,9,6,18,11,27,18,6,5,11,10,16,15,12,15,22,29,34,44,5,6,10,11,15,17,63,68,155,97,245,100,1.43.02,2.86.04,4.29.04,57.38,0,111.14-19.21,168.71-26.04,5.77-.96,11.54-1.41,17.31-1.41,12.23,0,24.46,2.01,36.69,5.41,49,16,94,46,118,92,19,35,30,69,53,102,25,34,52,61,88,82,1,1,2,2,3,3,5,3,10,6,14,8,28,17,54,29,85,37,17,4,33,7,50,9,26,2,52,2,78,2,10,1,21,1,31,2,48,6,93,14,140,27,6,1,11,2,17,4,37,13,69,35,104,51,25,11,50,16,77,18,2.48.19,4.96.27,7.45.27,10.52,0,21.04-1.46,31.55-2.27,25-3,48-11,71-21,5-2,8-7,7-12,0-2-2-3-4-4-26.07-6.7-51.03-15.07-73.23-29.24-3.63.16-7.27.25-10.91.25-7.3,0-14.59-.33-21.86-1.01-6-1-12-2-19-4-15-3-29-7-43-13-31-14-58-33-89-48-5-2-10-5-15-7-47-18-94-25-145-35-43-8-84-5-126-7-5.64-.56-11.2-1.13-16.73-1.76-15.34,4.87-31.11,8.17-47.32,8.17-5.92,0-11.91-.44-17.95-1.41-48.86-8.46-91.53-38.1-113.1-81.46-10.91-8.46-20.42-17.76-30.9-27.54-16-17-30-34-42-54-20-36-32-72-52-108-9-16-20-29-33-41-1-1-3-1-4-2-9-10-19-15-30-23-5-3-10-5-15-9-1-1-3,0-4-1-21.19-12.71-44.54-19.68-68.22-19.68-4.26,0-8.52.22-12.78.68-40,5-77,18-118,25-16,2-32,4-48,5-4.56.27-9.04.39-13.49.39-12.16,0-24.07-.93-36.51-2.39-72-10-139-36-195-85-2-2-3-4-5-6-19.12-18.44-34.51-39.21-50.64-60.09" fill="#fce5c3" stroke-width="0"/><path d="m137.52,312.28c-.26,0-.51,0-.77,0,16.12,20.88,31.51,41.65,50.64,60.09,2,2,3,4,5,6,56,49,123,75,195,85,12.45,1.46,24.35,2.39,36.51,2.39,4.45,0,8.93-.12,13.49-.39,16-1,32-3,48-5,41-7,78-20,118-25,4.27-.46,8.53-.68,12.78-.68,23.68,0,47.02,6.97,68.22,19.68,1,1,3,0,4,1,5,4,10,6,15,9,11,8,21,13,30,23,1,1,3,1,4,2,13,12,24,25,33,41,20,36,32,72,52,108,12,20,26,37,42,54,10.48,9.78,19.98,19.07,30.9,27.54-1.39-2.79-2.69-5.64-3.9-8.54-17-39-14-80-20-121-5-26-11-51-25-74-1-1,0-3-1-4-7-12-13-24-23-34-1-1-1-3-2-4-36-43-81-72-133-90-6-2-12-3-19-5-4.83-1.09-9.63-2.06-14.42-2.91-1.53.3-3.06.6-4.58.91-26,4-49,13-73,22-31,10-61,19-94,23-11.72,1.17-23.09,1.66-34.52,1.66-8.08,0-16.2-.24-24.48-.66-40-3-79-13-116-28-14-6-28-12-41-21-1-1-3,0-4-1-22.35-14.03-41.72-29.95-59.67-47.48-2.85-1.73-5.85-3.13-9.33-4.52-2.71-1.13-5.28-2.47-7.74-3.94-15.85-3.44-31.99-5.15-48.13-5.15" fill="#fac299" stroke-width="0"/><path d="m185.65,317.44c2.47,1.47,5.03,2.81,7.74,3.94,3.48,1.39,6.48,2.79,9.33,4.52-1.92-1.87-3.83-3.77-5.71-5.68-3.77-1.03-7.56-1.95-11.36-2.78" fill="#fabd76" stroke-width="0"/><path d="m202.73,325.89c17.95,17.53,37.32,33.45,59.67,47.48,1,1,3,0,4,1,13,9,27,15,41,21,37,15,76,25,116,28,8.29.41,16.4.66,24.48.66,11.43,0,22.8-.49,34.52-1.66,33-4,63-13,94-23,24-9,47-18,73-22,1.53-.31,3.06-.61,4.58-.91-16.73-2.96-33.26-4.44-49.9-4.44-9.17,0-18.38.45-27.68,1.35-38,4-74,13-111,16-8.33.51-16.62.76-24.89.76-40.42,0-80.27-5.97-120.11-16.76-21.71-6.03-40.87-16.06-60.12-26.14-6.45-1.57-12.78-3.48-18.88-5.86-4-1-9-2-14-4-2-1-4-2-7-3-1,0-2-1-3-2-1,0-3-1-4-1-1-1-2-1-3-2-1,0-3,0-4-1-1.21-.91-2.42-1.73-3.67-2.48" fill="#f9b077" stroke-width="0"/><path d="m197.02,320.21c1.89,1.91,3.79,3.81,5.71,5.68,1.24.75,2.45,1.57,3.67,2.48,1,1,3,1,4,1,1,1,2,1,3,2,1,0,3,1,4,1,1,1,2,2,3,2,3,1,5,2,7,3,5,2,10,3,14,4,6.1,2.37,12.43,4.29,18.88,5.86-12.67-6.64-25.38-13.3-38.88-18.86-8-3.2-16.14-5.92-24.38-8.16" fill="#faab5c" stroke-width="0"/><path d="m1265.08,742.78c-26.24,0-51.97,3.36-77.69,10.59-37,11-71,27-107,39-2.23.78-4.48,1.53-6.73,2.24,5.53.63,11.09,1.2,16.73,1.76,42,2,83-1,126,7,51,10,98,17,145,35,5,2,10,5,15,7,31,15,58,34,89,48,14,6,28,10,43,13,7,2,13,3,19,4,7.27.68,14.57,1.01,21.86,1.01,3.64,0,7.27-.08,10.91-.25-7.6-4.85-14.88-10.38-21.77-16.76-17-18-31-36-47-55-8-8-16-16-24-24-6-5-11-9-17-14-9-7-18-12-28-18-43-23-90-36-138-40-6.47-.39-12.91-.59-19.31-.59" fill="#fac299" stroke-width="0"/></g></svg>